<svg xmlns="http://www.w3.org/2000/svg" width="789" height="567" preserveAspectRatio="none" style="display:block" viewBox="0 0 2048 1472"><defs><linearGradient id="c" x1="1999.15" x2="1998.84" y1="1105.91" y2="1056.02" gradientUnits="userSpaceOnUse"><stop class="stop0" offset="0" stop-color="#bba014"/><stop class="stop1" offset="1" stop-color="#e5db37"/></linearGradient><linearGradient id="b" x1="1993.6" x2="2005.46" y1="1145.81" y2="1214.89" gradientUnits="userSpaceOnUse"><stop class="stop0" offset="0" stop-color="#656051"/><stop class="stop1" offset="1" stop-color="#292e64"/></linearGradient><linearGradient id="a" x1="1912.28" x2="1902.59" y1="1153.99" y2="1218.59" gradientUnits="userSpaceOnUse"><stop class="stop0" offset="0" stop-color="#655f5d"/><stop class="stop1" offset="1" stop-color="#273367"/></linearGradient></defs><path fill="#fefefe" d="M0 0h2048v1472H0z"/><path fill="#07307f" d="M29.734 166.271c.124-3.118.007-8.245 1.173-10.906 11.246 2.058 48.298 16.523 61.56 21.293a9566 9566 0 0 0 100.579 35.021L584.155 348.34l686.135 239.395 234.31 81.813c33.19 11.677 80.31 26.389 112.14 39.711 12.52 4.616 25.43 7.086 37.9 11.361 115.95 39.741 231.19 83.852 347.46 122.484-4.1 4.362-4.08 3.684-10.28 2.46l-10.92-3.799c-1.08 4.254-.9 4.931-.09 9.281a710 710 0 0 0-24.28.071c9.21 1.156 26.45-.241 31.92 1.556-.04 2.223.06 1.409-.82 3.542l-1824.069-.223-2.898.652c-2.045 5.463-.745 58.892-.766 69.303l-.02 191.163c.002 33.49.62 69.19-.323 102.46-28.806-.2-57.614-.21-86.42-.01-6.432.02-40.976 1.13-43.613-1.15-3.553-13.4 1.572-32.07-2.9-48.71-4.462-16.6-2.02-53.22-1.881-71.19l.103-111.981.039-469.957c-.054-96.764-.867-193.664-.481-290.462.06-15.017 4.189-28.146 4.149-43.116-.01-3.704-.41-14.033 1.184-16.723"/><path fill="#feeb02" d="M1616.74 709.259c12.52 4.616 25.43 7.086 37.9 11.361 115.95 39.741 231.19 83.852 347.46 122.484-4.1 4.362-4.08 3.684-10.28 2.46l-10.92-3.799c-1.08 4.254-.9 4.931-.09 9.281a710 710 0 0 0-24.28.071c9.21 1.156 26.45-.241 31.92 1.556-.04 2.223.06 1.409-.82 3.542l-1824.069-.223c6.9-6.393 10.985-5.226 20.947-5.637-8.549-.277-16.562 1.638-23.734-.652-2.596-2.931-1.772-3.084-1.88-7.776-.31-31.457-1.388-78.711.19-109.275-.267-3.248-.121-9.66-.155-13.152.096-1.845.287-2.64.614-4.425 2.827-1.762 5.018-1.171 8.81-1.275l728.989.235 207.698-.022c32.35.017 83.27-1.739 113.71 1.87 5.67.431 10.43.4 15.54 3.043l389.94-.093-5.81-1.225c-2.16-2.848-1.5-4.237-1.68-8.349"/><path fill="#010201" d="M184.508 850.355c120.346-1.748 243.856-.326 364.447-.355l688.405.017 456.7.028c85.06-.019 178.02-1.912 262.47 1.072 9.21 1.156 26.45-.241 31.92 1.556-.04 2.223.06 1.409-.82 3.542l-1824.069-.223c6.9-6.393 10.985-5.226 20.947-5.637"/><path fill="#e3d638" d="M1928.05 823.601a1755 1755 0 0 1 52.85 18.164c-1.08 4.254-.9 4.931-.09 9.281a710 710 0 0 0-24.28.071c-84.45-2.984-177.41-1.091-262.47-1.072l-456.7-.028L548.955 850c-120.591.029-244.101-1.393-364.447.355-8.549-.277-16.562 1.638-23.734-.652-2.596-2.931-1.772-3.084-1.88-7.776.654 1.964 1.571 6.017 3.123 6.122 23.802 1.619 67.652-.764 90.495-.84l340.464-.673 739.914-1.122 400.27 1.028c31.88.011 64.44 1.91 96.34 1.898 16.46-.007 32.12-.671 48.86.176 15.38-1.79 30.42-4.404 45.83-6.272 6.93-.839 31.64 2.142 34.15-3.749-4.95-7.909-27.34-7.442-30.29-14.894"/><path fill="#010201" d="m168.353 713.8 728.989.235 207.698-.022c32.35.017 83.27-1.739 113.71 1.87 5.67.431 10.43.4 15.54 3.043-3.93.158-10.69.221-14.37.661-21.7.952-47.91-.148-70.33-.033-84.92.434-169.961.215-254.889.223l-735.772-.277c.096-1.845.287-2.64.614-4.425 2.827-1.762 5.018-1.171 8.81-1.275m1448.387-4.541c12.52 4.616 25.43 7.086 37.9 11.361 115.95 39.741 231.19 83.852 347.46 122.484-4.1 4.362-4.08 3.684-10.28 2.46l-10.92-3.799a1755 1755 0 0 0-52.85-18.164c-12.04-5.214-35.6-12.682-48.72-17.34a7995 7995 0 0 0-105.68-37.199l-84.08-29.985c-18.21-6.51-47.18-18.129-65.34-20.244l-5.81-1.225c-2.16-2.848-1.5-4.237-1.68-8.349"/><path fill="#fefefe" d="M160.048 343.199c31.79 7.949 78.762 26.295 110.873 37.381l234.165 81.757 453.62 158.482c78.154 27.251 156.634 53.977 234.684 81.598 5.59 1.979 21.65 8.405 25.16 12.427l.2 1.039c-30.44-3.609-81.36-1.853-113.71-1.87l-207.698.022-728.989-.235c-3.977-.469-6.146.093-8.264-2.267-1.048-9.779-.267-31.732-.253-42.466l.008-82.996c-.004-79.49-1.41-163.696.204-242.872"/><path fill="#e3e7fb" d="M29.52 1218.41c-3.552-13.4 1.573-32.07-2.9-48.71-4.46-16.6-2.019-53.22-1.88-71.19l.103-111.981.039-469.957c-.054-96.764-.867-193.664-.481-290.462.06-15.017 4.189-28.146 4.149-43.116-.01-3.704-.41-14.033 1.184-16.723 1.571 82.36.5 167.551.483 250.108l-.001 437.48-.033 243.991-.12 81.48c-.056 9.68.34 30.17-.542 39.08"/><path fill="#07307f" d="M355.969 912.151c7.816-.405 15.566-1.031 22.807 2.523 12.041 5.908 20.09 21.057 24.463 33.083 18.844 51.822 21.069 193.753-2.503 243.673-5.871 12.43-13.411 21.35-26.44 26.11-8.249.72-16.438 1.5-24.264-1.82-12.054-5.1-19.013-17.67-23.58-29.27-21.085-53.55-20.937-193.604 2.469-246.065 5.84-13.089 13.471-22.985 27.048-28.234"/><path fill="#fefefe" d="M364.472 935.837c4.413 2.455 8.597 6.606 11.189 10.94 21.497 35.949 18.241 177.383 7.936 218.553-3.46 13.82-6.61 21.63-19.1 29.1-.286-.01-.576.01-.859-.03-3.612-.58-6.949-4.55-9.009-7.39-22.513-31.08-18.624-159.6-12.319-199.231 3.312-20.819 4.022-38.753 22.162-51.942"/><path fill="#07307f" d="M537.368 903.616c3.731 2.78 9.316 23.792 11.567 30.237l36.188 100.927c6.283 17.63 18.053 53.93 26.837 68.59-2.943-62.37 1.113-127.189-1.891-188.201 8.287-.306 16.585-.085 24.878.041-1.594 31.798-.82 68.458-.813 100.65.281 65.59.172 131.19-.328 196.78-.186 3.59-.185 10.25-2.154 13.04-2.289-1.58-6.6-18.3-8.387-23.04l-47.738-126.75c-2.389-6.25-9.821-31.81-14.936-32.52 1.104 19.49.639 38.54.604 58.15-.208 37.83-.049 75.67.477 113.51l-25.67.12-.03-215.537c-.01-14.901-1.295-85.183 1.396-95.997m626.132 7.572c29.93-3.485 35.45 5.271 31.82 32.757l-.99.339c-7.7-8.983-30.22-9.326-35.56.076-24.5 43.149-19.13 103.51-19.37 152.11-.12 22.6 4.01 73.42 20.95 91.14 3.83 3.41 12.59 2.03 17.8 1.66 1.73-44.21.47-95.51.62-140.31 8.13.05 16.22-2.05 22.89 1.14 2.13 3.33 1.43 3.88 1.46 8.28.2 47.47.13 94.94-.22 142.4-6.88 4.72-13.88 9.3-21.83 12-9.5 3.23-19.96 2.82-28.96-1.71-14.56-7.33-22.65-23.16-27.37-38.05-16.43-51.79-17.46-188.798 8.11-237.185 6.91-13.089 16.71-20.263 30.65-24.647m205.49.004c11.69-1.155 18.31.183 29.19 4.291.99 6.875.82 18.064 1.6 26.068-6.82-2.055-14.08-4.131-21.26-4.066-5.91.053-11.74 1.906-15.83 6.347-25.33 27.521-20.65 140.358-17.92 177.718 1.24 16.87 4.58 53.96 18.14 64.92 5.95 4.82 12.47 3.54 19.52 2.81 1.92-44.46.07-95.24.7-140.47 7.83-.31 16.06.09 23.92.32l-.03 12.62.05 85.44c.01 16.05.62 38.19-1.15 53.71-6.95 5.47-14.31 9.95-22.9 12.35-9.97 2.8-20.37 2.22-29.41-3.12-15.54-9.19-23.12-28.62-27.45-45.25-12.74-48.95-14.72-187.826 11.45-231.319 7.66-12.732 17.08-18.951 31.38-22.369m-428.075 3.849c20.701-.075 42.375-.435 62.965.339l-.27 25.414c-12.347.145-24.838.052-37.202.054-1.04 58.799-.26 120.532-.116 179.442 12.232-.19 23.567-.25 35.758.69-.42 5.68-.21 12.25-.17 18.01-10.712 1.07-24.637.68-35.656.65l-.005 42.99c-.067 3.13-.468 5.16 1.034 7.78 6.753 1.15 30.889.63 38.957.62-.22 8.06-.51 16.12-.89 24.17-20.796-.05-43.8-.54-64.394.34-1.472-47.02-.301-99.24-.242-146.63.062-50.34-1.032-103.816.231-153.869m-197.883.047c28.769-.614 59.988-.114 88.796-.001l.082 25.886c-10.615.044-21.493-.189-32.13-.295-1.71 78.932-.174 165.572-.076 244.842l-.33 30.04c-9.392-.52-15.861-.31-25.255.12-.68-27.66-.2-57.38-.191-85.15l-.168-189.61-30.805-.001zm787.818-.263 25.15.18c-.92 79.425.21 159.005-.21 238.445-.12 20.82.2 41.54-.53 62.36-9.19-.73-15.6-.63-24.72-.07-1.69-58.2-.29-122.09-.33-180.73l-.04-74.24c0-14.302-.48-31.943.68-45.945"/><path fill="#fefefe" d="M1772.58 1085.82c-1.21-7.23-4.22-18.49.41-24.64 6.62-8.79 21.01-.69 27.09 5.02 14.32 13.47 18.85 37.51 16.2 56.25-.7 12.81-2.41 25.1-10.33 35.68-4.26 5.69-10.83 9.79-14.7 15.92-.41.65 3.05 4.06 3.66 4.63-3.77 2.15-2.76 2.33-6.37 2.06l-2.85-1.92-1.8-4.74-2.32 4.4-.9-10.84c-1.49 6.84-.54 10.01-7.9 11.68l.36-11.79c-.05-12.98-.01-25.95.13-38.93.62-3.36.65-4.01 2.07-7.04l1.91-.57c2.59 1.16 2.79 1.4 4.95 3.31l.15-15-.04-6.91c-.37-4.73.2-6.86-1.04-11.83-3.23-3.63-3.5-2.87-8.68-4.74"/><path fill="#e3d638" d="M1772.58 1085.82c-1.21-7.23-4.22-18.49.41-24.64 6.62-8.79 21.01-.69 27.09 5.02 14.32 13.47 18.85 37.51 16.2 56.25-3.86-1.69-3.47-2.33-6.44-1.36-1.26 4.66-.36 6.88-1.57 11.15.11-14.67-.07-29.38-6.11-43.02-5.03-11.36-9.11-12.74-19.09-8.2-.39 7-.52 14.33-.77 21.37-.37-4.73.2-6.86-1.04-11.83-3.23-3.63-3.5-2.87-8.68-4.74"/><path fill="#010201" d="M1808.27 1132.24c1.21-4.27.31-6.49 1.57-11.15 2.97-.97 2.58-.33 6.44 1.36-.7 12.81-2.41 25.1-10.33 35.68-4.26 5.69-10.83 9.79-14.7 15.92-.41.65 3.05 4.06 3.66 4.63-3.77 2.15-2.76 2.33-6.37 2.06l-2.85-1.92-1.8-4.74c1.59-11.07 19.46-16.91 24.38-41.84"/><path fill="#755e1a" d="M1773.26 1128.6c.62-3.36.65-4.01 2.07-7.04l1.91-.57c2.59 1.16 2.79 1.4 4.95 3.31.1 7.89.53 18.64.14 26.29-.17 5.03-.03 12.56-1.66 17.05-1.49 6.84-.54 10.01-7.9 11.68l.36-11.79c-.05-12.98-.01-25.95.13-38.93"/><path fill="#010201" d="m1774.56 1145.58 7.77 5.01c-.17 5.03-.03 12.56-1.66 17.05-1.49 6.84-.54 10.01-7.9 11.68l.36-11.79c1.03-5.27 1.18-16.2 1.43-21.95"/><path fill="url(#a)" d="m1902.13 1115.63-.32 43.93c.41 14.89 1.1 30.59 1.14 45.43l23.19.29-.16 14.09-36.81.54c-.32-19.4.47-38.95 1.05-58.35l-.26-45.77c1.37 1.88 1.88 2.59 3.02 4.69 3.82 1.89 2.47 1.92 5.9 1.12 2.44-1.92 2.36-2.79 3.25-5.97"/><path fill="#8e7d41" d="m1902.13 1115.63-.32 43.93c-1-5.54-1.16-8.93-1.41-14.59-1.06 4.19-.32 3.94-2.92 6.57l-4.75-.1-.22-.92 2.05-1.14-1.62-2.25-1.15.49c-1.11 5.4-.36 9.67-1.57 13.94l-.26-45.77c1.37 1.88 1.88 2.59 3.02 4.69 3.82 1.89 2.47 1.92 5.9 1.12 2.44-1.92 2.36-2.79 3.25-5.97"/><path fill="url(#b)" d="M2011.9 1140.79c12.19 18.75 13.86 31.25 10.84 54.51-2.15 16.55-31.2 33.52-42.22 20.39-.98-4.27-.81-6.8-.79-11.1 2.98.15 12.33.82 14.73.09 26.02-7.93 17.07-38.9 9.03-55.85 2.7-.28 2.75-.13 5.13-1.65 1-2.8 1.55-3.97 3.28-6.39"/><path fill="#2b304f" d="M1686.38 1147.42c.58-3.31-.58-5.4-1.84-8.47l1.47-1.08 2.08.43c2.05 2.58 3.11 4.63 6.42 5.53 18.22 25.69 19.53 74.96-23.48 76.06-5.2.13-10.05-6.56-9.66-11.98 6.65-7.56 22.57 2.96 30.68-15.69 8.86-20.36-1.79-27.5-5.67-44.8"/><path fill="#e3d638" d="M1665.35 1112.18c-4.85-10.61-6.57-34.56.44-44.96 4.62-8.5 21.92-18.41 30.81-11.93 7.35 6.12 3.64 11.27-3.66 14.02-16.98 6.4-24.37 17.15-20.25 35l.32 1.38c-2.67 2.05-5.47 3.97-7.66 6.49"/><path fill="url(#c)" d="M1981.96 1108.98c-2.72-10.73-3.22-32.36 2.01-42.27 2.84-5.51 7.83-9.62 13.79-11.34 7.65-2.2 19.77-.41 21.9 8.64-2.55 19.16-31.69-6.25-29.59 39.15-1.99 1.29-6.85 4.18-8.11 5.82"/><path fill="#e3d638" d="M1889.96 1115.79c-1.24-14.15-4.44-44 2.36-57.11.32-.61 5.07-4.29 5.92-4.98 8.48 22.5 5 37.91 3.89 61.93-.89 3.18-.81 4.05-3.25 5.97-3.43.8-2.08.77-5.9-1.12-1.14-2.1-1.65-2.81-3.02-4.69"/><path fill="#2b304f" d="M1794.91 1178.68c3.56 3.25 6.72 6.93 9.89 10.57 10.25 11.78 22.09 22.09 34.16 31.96-9.1-1.68-12.79-2.05-21.99-1.7-13.14-8.99-26.27-25.73-31.28-40.69l2.85 1.92c3.61.27 2.6.09 6.37-2.06m-22.14.64c7.36-1.67 6.41-4.84 7.9-11.68l.9 10.84c.98 7.37 5.41 34.56 1.86 40.25-3.95 1.65-8.06 1.02-12.46.84.29-12.25.42-28.36 1.8-40.25m208.13-337.555 10.92 3.799c6.2 1.224 6.18 1.902 10.28-2.46 11.38 3.697 24.56 9.748 35.58 12.234-15.03.785-34.9 1.238-50.05.877.88-2.133.78-1.319.82-3.542-5.47-1.797-22.71-.4-31.92-1.556a710 710 0 0 1 24.28-.071c-.81-4.35-.99-5.027.09-9.281"/><path fill="#c2c09c" d="m1980.9 841.765 10.92 3.799c2.66 1.138 5.7 1.769 6.61 3.86-3.11 1.749-13.74 1.614-17.62 1.622-.81-4.35-.99-5.027.09-9.281"/><path fill="#8e7d41" d="m1990.07 1103.16 3.33 9.7c2.79 4.83 5.99 10.69 9.03 15.25l9.47 12.68c-1.73 2.42-2.28 3.59-3.28 6.39-2.38 1.52-2.43 1.37-5.13 1.65-2.77-4.86-5.42-10.16-8.01-15.14-3.51-5.25-5.9-9.11-8.92-14.64-1.77-3.15-3.18-6.73-4.6-10.07 1.26-1.64 6.12-4.53 8.11-5.82"/><path fill="#625137" d="m2002.43 1128.11 9.47 12.68c-1.73 2.42-2.28 3.59-3.28 6.39-2.38 1.52-2.43 1.37-5.13 1.65-2.77-4.86-5.42-10.16-8.01-15.14 3.63 2.41 1.64 2.77 5.74 3.89-.59-4.44-.65-5.39 1.21-9.47"/><path fill="#b69424" d="m1990.07 1103.16 3.33 9.7-2.52.76-1.13-2-2.18 3.15.75 2.46-1.76 1.82c-1.77-3.15-3.18-6.73-4.6-10.07 1.26-1.64 6.12-4.53 8.11-5.82"/><path fill="#625137" d="M1665.35 1112.18c2.19-2.52 4.99-4.44 7.66-6.49 6.31 19.36 13.91 23.61 21.5 38.14-3.31-.9-4.37-2.95-6.42-5.53l-2.08-.43-1.47 1.08c1.26 3.07 2.42 5.16 1.84 8.47-7.92-11.96-14.83-22.31-21.03-35.24"/><path fill="#b69424" d="M1772.58 1085.82c5.18 1.87 5.45 1.11 8.68 4.74 1.24 4.97.67 7.1 1.04 11.83l.04 6.91-.15 15c-2.16-1.91-2.36-2.15-4.95-3.31l-1.91.57c-1.42 3.03-1.45 3.68-2.07 7.04l.05-8.05c.01-11.8.1-22.93-.73-34.73"/><path fill="#8e7d41" d="M1773.31 1120.55c.78-3.79.31-9.11 2.83-11.8 1.38 1.89 1.36 2.01 3.19 3.41 1.89-.87 1.59-1 3.01-2.86l-.15 15c-2.16-1.91-2.36-2.15-4.95-3.31l-1.91.57c-1.42 3.03-1.45 3.68-2.07 7.04z"/></svg>